mtllib materials.mtl
v -0.01867103 0.8058445 -0.02195817
v -0.02835193 0.8058445 0.005190492
v -0.02835186 -0.8041553 0.005190313
v -0.01867097 -0.8041553 -0.02195835
v -0.00968089 0.8058445 0.02714878
v -0.009680822 -0.8041553 0.0271486
v 0.01867103 0.8058445 0.02195835
v 0.01867109 -0.8041553 0.02195817
v 0.02835191 0.8058445 -0.005190372
v 0.02835198 -0.8041553 -0.005190551
v 0.009680882 0.8058445 -0.02714866
v 0.009680949 -0.8041553 -0.02714884
v -0.02017886 0.8091555 -0.02373123
v -0.03064144 0.8091555 0.005609572
v -0.03064102 -0.8108445 0.005609453
v -0.02017843 -0.8108445 -0.02373135
v -0.01046282 0.8091555 0.02934092
v -0.01046238 -0.8108445 0.02934074
v 0.02017839 0.8091555 0.02373135
v 0.02017882 -0.8108445 0.02373123
v 0.03064096 0.8091555 -0.005609512
v 0.03064141 -0.8108445 -0.005609632
v 0.01046234 0.8091555 -0.0293408
v 0.01046278 -0.8108445 -0.02934098
vn -0.9419074 -8.904409E-09 -0.3358727
vn -0.7618279 7.584688E-09 0.6477794
vn 0.1800797 3.53445E-08 0.9836521
vn 0.9419076 7.935149E-09 0.3358723
vn 0.761828 7.192237E-09 -0.6477794
vn -0.1800806 -2.243495E-09 -0.9836519
vn 2.587823E-07 -1 7.059018E-08
vn -6.335768E-08 1 1.59241E-07
vn -0.9419074 -2.477478E-07 -0.3358729
vn -0.7618281 -1.672609E-07 0.6477792
vn 0.1800794 9.934239E-08 0.9836521
vn 0.9419075 2.467786E-07 0.3358725
vn 0.7618282 1.820378E-07 -0.6477792
vn -0.1800804 -6.624162E-08 -0.9836519
vn 5.052459E-07 -1 9.053113E-08
vn -3.098213E-07 1 1.393001E-07
vt -0.2577856 0.1152325
vt -0.2595057 0.1129197
vt -0.1303193 0.01683717
vt -0.1285991 0.01914993
vt 0.1316758 0.2458108
vt 0.1293715 0.2475422
vt 0.03265659 0.1188285
vt 0.0349609 0.1170971
vt 0.2575511 0.1002457
vt 0.2563099 0.1028471
vt 0.1110016 0.03351836
vt 0.1122427 0.03091696
vt 0.2595057 0.1129197
vt 0.2577856 0.1152325
vt 0.1285991 0.01914996
vt 0.1303193 0.01683719
vt -0.1293715 0.2475422
vt -0.1316758 0.2458108
vt -0.0349609 0.1170971
vt -0.03265659 0.1188285
vt -0.25631 0.102847
vt -0.2575511 0.1002456
vt -0.1122428 0.03091691
vt -0.1110016 0.0335183
vt 0.05501344 -0.0296889
vt 0.05724454 -0.0315137
vt 0.05994042 -0.03049391
vt 0.06040519 -0.02764932
vt 0.05817408 -0.02582452
vt 0.05547821 -0.02684431
vt -0.05547817 -0.02684432
vt -0.05817404 -0.02582453
vt -0.06040515 -0.02764933
vt -0.05994038 -0.03049392
vt -0.0572445 -0.03151371
vt -0.0550134 -0.02968892
vt -0.2579819 0.1155233
vt -0.2598409 0.1130238
vt -0.129852 0.01634455
vt -0.127993 0.01884406
vt 0.1319678 0.2460056
vt 0.1294774 0.2478769
vt 0.03216172 0.1183637
vt 0.03465208 0.1164925
vt 0.2579 0.1002833
vt 0.2565587 0.1030947
vt 0.1103477 0.03333536
vt 0.1116891 0.03052392
vt 0.2598408 0.1130239
vt 0.2579818 0.1155234
vt 0.127993 0.01884409
vt 0.129852 0.01634458
vt -0.1294774 0.2478769
vt -0.1319677 0.2460056
vt -0.03465207 0.1164924
vt -0.0321617 0.1183637
vt -0.2565587 0.1030946
vt -0.2579001 0.1002832
vt -0.1116891 0.03052387
vt -0.1103477 0.03333531
vt 0.05479578 -0.02977121
vt 0.05720703 -0.03174335
vt 0.06012059 -0.03064121
vt 0.06062289 -0.02756693
vt 0.05821164 -0.02559479
vt 0.05529807 -0.02669692
vt -0.05529804 -0.02669694
vt -0.05821159 -0.0255948
vt -0.06062285 -0.02756695
vt -0.06012055 -0.03064122
vt -0.05720699 -0.03174336
vt -0.05479573 -0.02977121
o group2147227669
g mesh2147227669
usemtl mat21
f 4/4/1 3/3/1 2/2/1 1/1/1
f 3/8/2 6/7/2 5/6/2 2/5/2
f 6/12/3 8/11/3 7/10/3 5/9/3
f 8/16/4 10/15/4 9/14/4 7/13/4
f 10/20/5 12/19/5 11/18/5 9/17/5
f 12/24/6 4/23/6 1/22/6 11/21/6
f 12/30/7 10/29/7 8/28/7 6/27/7 3/26/7 4/25/7
f 1/36/8 2/35/8 5/34/8 7/33/8 9/32/8 11/31/8
o group233486490
g mesh233486490
usemtl mat24
f 16/40/9 15/39/9 14/38/9 13/37/9
f 15/44/10 18/43/10 17/42/10 14/41/10
f 18/48/11 20/47/11 19/46/11 17/45/11
f 20/52/12 22/51/12 21/50/12 19/49/12
f 22/56/13 24/55/13 23/54/13 21/53/13
f 24/60/14 16/59/14 13/58/14 23/57/14
f 24/66/15 22/65/15 20/64/15 18/63/15 15/62/15 16/61/15
f 13/72/16 14/71/16 17/70/16 19/69/16 21/68/16 23/67/16
